<mxfile host="www.draw.io" modified="2019-10-17T08:54:31.970Z" agent="Mozilla/5.0 (Windows NT 10.0; Win64; x64) AppleWebKit/537.36 (KHTML, like Gecko) Chrome/77.0.3865.120 Safari/537.36" etag="yIn1_7i_DZ61Noncg6QP" version="12.1.2" type="github" pages="1">
  <diagram id="JtfpFRSSnTSALHeO8ptM" name="Page-1">
    <mxGraphModel dx="1422" dy="713" grid="1" gridSize="10" guides="1" tooltips="1" connect="1" arrows="1" fold="1" page="1" pageScale="1" pageWidth="827" pageHeight="1169" math="0" shadow="0">
      <root>
        <mxCell id="0"/>
        <mxCell id="1" parent="0"/>
        <mxCell id="E94k6uw-H9_ipkAbO5sh-1" value="" style="whiteSpace=wrap;html=1;aspect=fixed;fillColor=#cce5ff;strokeColor=#36393d;fontSize=30;" vertex="1" parent="1">
          <mxGeometry x="40" y="390" width="116" height="116" as="geometry"/>
        </mxCell>
        <mxCell id="E94k6uw-H9_ipkAbO5sh-2" value="" style="whiteSpace=wrap;html=1;aspect=fixed;fillColor=#cce5ff;strokeColor=#36393d;fontSize=30;" vertex="1" parent="1">
          <mxGeometry x="156" y="390" width="116" height="116" as="geometry"/>
        </mxCell>
        <mxCell id="E94k6uw-H9_ipkAbO5sh-3" value="" style="whiteSpace=wrap;html=1;aspect=fixed;fillColor=#cce5ff;strokeColor=#36393d;fontSize=30;" vertex="1" parent="1">
          <mxGeometry x="40" y="506" width="116" height="116" as="geometry"/>
        </mxCell>
        <mxCell id="E94k6uw-H9_ipkAbO5sh-4" value="" style="whiteSpace=wrap;html=1;aspect=fixed;fillColor=#cce5ff;strokeColor=#36393d;fontSize=30;" vertex="1" parent="1">
          <mxGeometry x="156" y="506" width="116" height="116" as="geometry"/>
        </mxCell>
        <mxCell id="E94k6uw-H9_ipkAbO5sh-5" value="" style="endArrow=none;html=1;entryX=0;entryY=0.5;entryDx=0;entryDy=0;exitX=1;exitY=0.5;exitDx=0;exitDy=0;fontSize=30;" edge="1" parent="1" source="E94k6uw-H9_ipkAbO5sh-2" target="E94k6uw-H9_ipkAbO5sh-1">
          <mxGeometry width="50" height="50" relative="1" as="geometry">
            <mxPoint x="-130" y="577" as="sourcePoint"/>
            <mxPoint x="-22" y="526" as="targetPoint"/>
          </mxGeometry>
        </mxCell>
        <mxCell id="E94k6uw-H9_ipkAbO5sh-6" value="" style="endArrow=none;html=1;entryX=0;entryY=0.5;entryDx=0;entryDy=0;exitX=1;exitY=0.5;exitDx=0;exitDy=0;fontSize=30;" edge="1" parent="1" source="E94k6uw-H9_ipkAbO5sh-4" target="E94k6uw-H9_ipkAbO5sh-3">
          <mxGeometry width="50" height="50" relative="1" as="geometry">
            <mxPoint x="-100" y="666" as="sourcePoint"/>
            <mxPoint x="-20" y="586" as="targetPoint"/>
          </mxGeometry>
        </mxCell>
        <mxCell id="E94k6uw-H9_ipkAbO5sh-7" value="" style="endArrow=none;html=1;entryX=0.5;entryY=0;entryDx=0;entryDy=0;exitX=0.5;exitY=1;exitDx=0;exitDy=0;fontSize=30;" edge="1" parent="1" source="E94k6uw-H9_ipkAbO5sh-3" target="E94k6uw-H9_ipkAbO5sh-1">
          <mxGeometry width="50" height="50" relative="1" as="geometry">
            <mxPoint x="-170" y="666" as="sourcePoint"/>
            <mxPoint x="-120" y="616" as="targetPoint"/>
          </mxGeometry>
        </mxCell>
        <mxCell id="E94k6uw-H9_ipkAbO5sh-8" value="" style="endArrow=none;html=1;entryX=0.5;entryY=0;entryDx=0;entryDy=0;exitX=0.5;exitY=1;exitDx=0;exitDy=0;fontSize=30;" edge="1" parent="1" source="E94k6uw-H9_ipkAbO5sh-4" target="E94k6uw-H9_ipkAbO5sh-2">
          <mxGeometry width="50" height="50" relative="1" as="geometry">
            <mxPoint x="-80" y="766" as="sourcePoint"/>
            <mxPoint x="-30" y="716" as="targetPoint"/>
          </mxGeometry>
        </mxCell>
        <mxCell id="E94k6uw-H9_ipkAbO5sh-9" value="&lt;font style=&quot;font-size: 30px;&quot;&gt;1&lt;/font&gt;" style="text;html=1;strokeColor=none;fillColor=none;align=center;verticalAlign=middle;whiteSpace=wrap;rounded=0;fontSize=30;" vertex="1" parent="1">
          <mxGeometry x="50" y="406" width="40" height="34" as="geometry"/>
        </mxCell>
        <mxCell id="E94k6uw-H9_ipkAbO5sh-10" value="&lt;font style=&quot;font-size: 30px;&quot;&gt;1&lt;/font&gt;" style="text;html=1;strokeColor=none;fillColor=none;align=center;verticalAlign=middle;whiteSpace=wrap;rounded=0;fontSize=30;" vertex="1" parent="1">
          <mxGeometry x="107" y="406" width="40" height="34" as="geometry"/>
        </mxCell>
        <mxCell id="E94k6uw-H9_ipkAbO5sh-11" value="&lt;font style=&quot;font-size: 30px;&quot;&gt;1&lt;/font&gt;" style="text;html=1;strokeColor=none;fillColor=none;align=center;verticalAlign=middle;whiteSpace=wrap;rounded=0;fontSize=30;" vertex="1" parent="1">
          <mxGeometry x="164" y="406" width="40" height="34" as="geometry"/>
        </mxCell>
        <mxCell id="E94k6uw-H9_ipkAbO5sh-12" value="&lt;font style=&quot;font-size: 30px;&quot;&gt;0&lt;/font&gt;" style="text;html=1;strokeColor=none;fillColor=none;align=center;verticalAlign=middle;whiteSpace=wrap;rounded=0;fontSize=30;" vertex="1" parent="1">
          <mxGeometry x="223" y="406" width="40" height="34" as="geometry"/>
        </mxCell>
        <mxCell id="E94k6uw-H9_ipkAbO5sh-13" value="&lt;font style=&quot;font-size: 30px;&quot;&gt;0&lt;/font&gt;" style="text;html=1;strokeColor=none;fillColor=none;align=center;verticalAlign=middle;whiteSpace=wrap;rounded=0;fontSize=30;" vertex="1" parent="1">
          <mxGeometry x="50" y="463" width="40" height="34" as="geometry"/>
        </mxCell>
        <mxCell id="E94k6uw-H9_ipkAbO5sh-14" value="&lt;font style=&quot;font-size: 30px;&quot;&gt;1&lt;/font&gt;" style="text;html=1;strokeColor=none;fillColor=none;align=center;verticalAlign=middle;whiteSpace=wrap;rounded=0;fontSize=30;" vertex="1" parent="1">
          <mxGeometry x="106" y="463" width="40" height="34" as="geometry"/>
        </mxCell>
        <mxCell id="E94k6uw-H9_ipkAbO5sh-15" value="&lt;font style=&quot;font-size: 30px;&quot;&gt;1&lt;/font&gt;" style="text;html=1;strokeColor=none;fillColor=none;align=center;verticalAlign=middle;whiteSpace=wrap;rounded=0;fontSize=30;" vertex="1" parent="1">
          <mxGeometry x="164" y="463" width="40" height="34" as="geometry"/>
        </mxCell>
        <mxCell id="E94k6uw-H9_ipkAbO5sh-16" value="&lt;font style=&quot;font-size: 30px;&quot;&gt;0&lt;/font&gt;" style="text;html=1;strokeColor=none;fillColor=none;align=center;verticalAlign=middle;whiteSpace=wrap;rounded=0;fontSize=30;" vertex="1" parent="1">
          <mxGeometry x="50" y="518" width="40" height="34" as="geometry"/>
        </mxCell>
        <mxCell id="E94k6uw-H9_ipkAbO5sh-17" value="&lt;font style=&quot;font-size: 30px;&quot;&gt;0&lt;/font&gt;" style="text;html=1;strokeColor=none;fillColor=none;align=center;verticalAlign=middle;whiteSpace=wrap;rounded=0;fontSize=30;" vertex="1" parent="1">
          <mxGeometry x="106" y="519" width="40" height="34" as="geometry"/>
        </mxCell>
        <mxCell id="E94k6uw-H9_ipkAbO5sh-18" value="&lt;font style=&quot;font-size: 30px;&quot;&gt;1&lt;/font&gt;" style="text;html=1;strokeColor=none;fillColor=none;align=center;verticalAlign=middle;whiteSpace=wrap;rounded=0;fontSize=30;" vertex="1" parent="1">
          <mxGeometry x="164" y="518" width="40" height="34" as="geometry"/>
        </mxCell>
        <mxCell id="E94k6uw-H9_ipkAbO5sh-19" value="&lt;font style=&quot;font-size: 30px;&quot;&gt;1&lt;/font&gt;" style="text;html=1;strokeColor=none;fillColor=none;align=center;verticalAlign=middle;whiteSpace=wrap;rounded=0;fontSize=30;" vertex="1" parent="1">
          <mxGeometry x="223" y="518" width="40" height="34" as="geometry"/>
        </mxCell>
        <mxCell id="E94k6uw-H9_ipkAbO5sh-20" value="&lt;font style=&quot;font-size: 30px;&quot;&gt;0&lt;/font&gt;" style="text;html=1;strokeColor=none;fillColor=none;align=center;verticalAlign=middle;whiteSpace=wrap;rounded=0;fontSize=30;" vertex="1" parent="1">
          <mxGeometry x="50" y="576" width="40" height="34" as="geometry"/>
        </mxCell>
        <mxCell id="E94k6uw-H9_ipkAbO5sh-21" value="&lt;font style=&quot;font-size: 30px;&quot;&gt;0&lt;/font&gt;" style="text;html=1;strokeColor=none;fillColor=none;align=center;verticalAlign=middle;whiteSpace=wrap;rounded=0;fontSize=30;" vertex="1" parent="1">
          <mxGeometry x="106" y="576" width="40" height="34" as="geometry"/>
        </mxCell>
        <mxCell id="E94k6uw-H9_ipkAbO5sh-22" value="&lt;font style=&quot;font-size: 30px;&quot;&gt;1&lt;/font&gt;" style="text;html=1;strokeColor=none;fillColor=none;align=center;verticalAlign=middle;whiteSpace=wrap;rounded=0;fontSize=30;" vertex="1" parent="1">
          <mxGeometry x="164" y="576" width="40" height="34" as="geometry"/>
        </mxCell>
        <mxCell id="E94k6uw-H9_ipkAbO5sh-23" value="&lt;font style=&quot;font-size: 30px;&quot;&gt;1&lt;/font&gt;" style="text;html=1;strokeColor=none;fillColor=none;align=center;verticalAlign=middle;whiteSpace=wrap;rounded=0;fontSize=30;" vertex="1" parent="1">
          <mxGeometry x="223" y="577" width="40" height="34" as="geometry"/>
        </mxCell>
        <mxCell id="E94k6uw-H9_ipkAbO5sh-24" value="&lt;font style=&quot;font-size: 30px;&quot;&gt;1&lt;/font&gt;" style="text;html=1;strokeColor=none;fillColor=none;align=center;verticalAlign=middle;whiteSpace=wrap;rounded=0;fontSize=30;" vertex="1" parent="1">
          <mxGeometry x="223" y="463" width="40" height="34" as="geometry"/>
        </mxCell>
        <mxCell id="E94k6uw-H9_ipkAbO5sh-73" value="0" style="whiteSpace=wrap;html=1;aspect=fixed;fillColor=#cce5ff;strokeColor=#36393d;fontSize=30;" vertex="1" parent="1">
          <mxGeometry x="272" y="390" width="58" height="58" as="geometry"/>
        </mxCell>
        <mxCell id="E94k6uw-H9_ipkAbO5sh-74" value="0" style="whiteSpace=wrap;html=1;aspect=fixed;fillColor=#cce5ff;strokeColor=#36393d;fontSize=30;" vertex="1" parent="1">
          <mxGeometry x="272" y="448" width="58" height="58" as="geometry"/>
        </mxCell>
        <mxCell id="E94k6uw-H9_ipkAbO5sh-75" value="1" style="whiteSpace=wrap;html=1;aspect=fixed;fillColor=#cce5ff;strokeColor=#36393d;fontSize=30;" vertex="1" parent="1">
          <mxGeometry x="272" y="506" width="58" height="58" as="geometry"/>
        </mxCell>
        <mxCell id="E94k6uw-H9_ipkAbO5sh-76" value="0" style="whiteSpace=wrap;html=1;aspect=fixed;fillColor=#cce5ff;strokeColor=#36393d;fontSize=30;" vertex="1" parent="1">
          <mxGeometry x="272" y="564" width="58" height="58" as="geometry"/>
        </mxCell>
        <mxCell id="E94k6uw-H9_ipkAbO5sh-77" value="0" style="whiteSpace=wrap;html=1;aspect=fixed;fillColor=#cce5ff;strokeColor=#36393d;fontSize=30;" vertex="1" parent="1">
          <mxGeometry x="40" y="622" width="58" height="58" as="geometry"/>
        </mxCell>
        <mxCell id="E94k6uw-H9_ipkAbO5sh-78" value="0" style="whiteSpace=wrap;html=1;aspect=fixed;fillColor=#cce5ff;strokeColor=#36393d;fontSize=30;" vertex="1" parent="1">
          <mxGeometry x="98" y="622" width="58" height="58" as="geometry"/>
        </mxCell>
        <mxCell id="E94k6uw-H9_ipkAbO5sh-79" value="1" style="whiteSpace=wrap;html=1;aspect=fixed;fillColor=#cce5ff;strokeColor=#36393d;fontSize=30;" vertex="1" parent="1">
          <mxGeometry x="156" y="622" width="58" height="58" as="geometry"/>
        </mxCell>
        <mxCell id="E94k6uw-H9_ipkAbO5sh-80" value="1" style="whiteSpace=wrap;html=1;aspect=fixed;fillColor=#cce5ff;strokeColor=#36393d;fontSize=30;" vertex="1" parent="1">
          <mxGeometry x="214" y="622" width="58" height="58" as="geometry"/>
        </mxCell>
        <mxCell id="E94k6uw-H9_ipkAbO5sh-81" value="0" style="whiteSpace=wrap;html=1;aspect=fixed;fillColor=#cce5ff;strokeColor=#36393d;fontSize=30;" vertex="1" parent="1">
          <mxGeometry x="272" y="622" width="58" height="58" as="geometry"/>
        </mxCell>
        <mxCell id="E94k6uw-H9_ipkAbO5sh-83" value="" style="whiteSpace=wrap;html=1;aspect=fixed;fillColor=#ffff88;strokeColor=#36393d;fontSize=30;" vertex="1" parent="1">
          <mxGeometry x="410" y="436" width="116" height="116" as="geometry"/>
        </mxCell>
        <mxCell id="E94k6uw-H9_ipkAbO5sh-88" value="1" style="whiteSpace=wrap;html=1;aspect=fixed;fillColor=#ffff88;strokeColor=#36393d;fontSize=30;" vertex="1" parent="1">
          <mxGeometry x="526" y="436" width="58" height="58" as="geometry"/>
        </mxCell>
        <mxCell id="E94k6uw-H9_ipkAbO5sh-89" value="0" style="whiteSpace=wrap;html=1;aspect=fixed;fillColor=#ffff88;strokeColor=#36393d;fontSize=30;" vertex="1" parent="1">
          <mxGeometry x="526" y="494" width="58" height="58" as="geometry"/>
        </mxCell>
        <mxCell id="E94k6uw-H9_ipkAbO5sh-90" value="1" style="whiteSpace=wrap;html=1;aspect=fixed;fillColor=#ffff88;strokeColor=#36393d;fontSize=30;" vertex="1" parent="1">
          <mxGeometry x="410" y="552" width="58" height="58" as="geometry"/>
        </mxCell>
        <mxCell id="E94k6uw-H9_ipkAbO5sh-91" value="0" style="whiteSpace=wrap;html=1;aspect=fixed;fillColor=#ffff88;strokeColor=#36393d;fontSize=30;" vertex="1" parent="1">
          <mxGeometry x="468" y="552" width="58" height="58" as="geometry"/>
        </mxCell>
        <mxCell id="E94k6uw-H9_ipkAbO5sh-92" value="1" style="whiteSpace=wrap;html=1;aspect=fixed;fillColor=#ffff88;strokeColor=#36393d;fontSize=30;" vertex="1" parent="1">
          <mxGeometry x="526" y="552" width="58" height="58" as="geometry"/>
        </mxCell>
        <mxCell id="E94k6uw-H9_ipkAbO5sh-93" value="" style="endArrow=none;html=1;fontSize=30;exitX=0;exitY=0.5;exitDx=0;exitDy=0;entryX=1;entryY=0.5;entryDx=0;entryDy=0;" edge="1" parent="1" source="E94k6uw-H9_ipkAbO5sh-83" target="E94k6uw-H9_ipkAbO5sh-83">
          <mxGeometry width="50" height="50" relative="1" as="geometry">
            <mxPoint x="450" y="398" as="sourcePoint"/>
            <mxPoint x="500" y="348" as="targetPoint"/>
          </mxGeometry>
        </mxCell>
        <mxCell id="E94k6uw-H9_ipkAbO5sh-94" value="" style="endArrow=none;html=1;fontSize=30;exitX=0.5;exitY=0;exitDx=0;exitDy=0;entryX=0.5;entryY=1;entryDx=0;entryDy=0;" edge="1" parent="1" source="E94k6uw-H9_ipkAbO5sh-83" target="E94k6uw-H9_ipkAbO5sh-83">
          <mxGeometry width="50" height="50" relative="1" as="geometry">
            <mxPoint x="450" y="378" as="sourcePoint"/>
            <mxPoint x="500" y="328" as="targetPoint"/>
          </mxGeometry>
        </mxCell>
        <mxCell id="E94k6uw-H9_ipkAbO5sh-95" value="1" style="text;html=1;strokeColor=none;fillColor=none;align=center;verticalAlign=middle;whiteSpace=wrap;rounded=0;fontSize=30;" vertex="1" parent="1">
          <mxGeometry x="419" y="455" width="40" height="20" as="geometry"/>
        </mxCell>
        <mxCell id="E94k6uw-H9_ipkAbO5sh-96" value="0" style="text;html=1;strokeColor=none;fillColor=none;align=center;verticalAlign=middle;whiteSpace=wrap;rounded=0;fontSize=30;" vertex="1" parent="1">
          <mxGeometry x="477" y="455" width="40" height="20" as="geometry"/>
        </mxCell>
        <mxCell id="E94k6uw-H9_ipkAbO5sh-97" value="0" style="text;html=1;strokeColor=none;fillColor=none;align=center;verticalAlign=middle;whiteSpace=wrap;rounded=0;fontSize=30;" vertex="1" parent="1">
          <mxGeometry x="419" y="513" width="40" height="20" as="geometry"/>
        </mxCell>
        <mxCell id="E94k6uw-H9_ipkAbO5sh-98" value="1" style="text;html=1;strokeColor=none;fillColor=none;align=center;verticalAlign=middle;whiteSpace=wrap;rounded=0;fontSize=30;" vertex="1" parent="1">
          <mxGeometry x="477" y="513" width="40" height="20" as="geometry"/>
        </mxCell>
        <mxCell id="E94k6uw-H9_ipkAbO5sh-99" value="" style="whiteSpace=wrap;html=1;aspect=fixed;fillColor=#f8cecc;strokeColor=#b85450;fontSize=30;" vertex="1" parent="1">
          <mxGeometry x="660" y="436" width="116" height="116" as="geometry"/>
        </mxCell>
        <mxCell id="E94k6uw-H9_ipkAbO5sh-100" value="4" style="whiteSpace=wrap;html=1;aspect=fixed;fillColor=#f8cecc;strokeColor=#b85450;fontSize=30;" vertex="1" parent="1">
          <mxGeometry x="776" y="436" width="58" height="58" as="geometry"/>
        </mxCell>
        <mxCell id="E94k6uw-H9_ipkAbO5sh-101" value="3" style="whiteSpace=wrap;html=1;aspect=fixed;fillColor=#f8cecc;strokeColor=#b85450;fontSize=30;" vertex="1" parent="1">
          <mxGeometry x="776" y="494" width="58" height="58" as="geometry"/>
        </mxCell>
        <mxCell id="E94k6uw-H9_ipkAbO5sh-102" value="2" style="whiteSpace=wrap;html=1;aspect=fixed;fillColor=#f8cecc;strokeColor=#b85450;fontSize=30;" vertex="1" parent="1">
          <mxGeometry x="660" y="552" width="58" height="58" as="geometry"/>
        </mxCell>
        <mxCell id="E94k6uw-H9_ipkAbO5sh-103" value="3" style="whiteSpace=wrap;html=1;aspect=fixed;fillColor=#f8cecc;strokeColor=#b85450;fontSize=30;" vertex="1" parent="1">
          <mxGeometry x="718" y="552" width="58" height="58" as="geometry"/>
        </mxCell>
        <mxCell id="E94k6uw-H9_ipkAbO5sh-104" value="4" style="whiteSpace=wrap;html=1;aspect=fixed;fillColor=#f8cecc;strokeColor=#b85450;fontSize=30;" vertex="1" parent="1">
          <mxGeometry x="776" y="552" width="58" height="58" as="geometry"/>
        </mxCell>
        <mxCell id="E94k6uw-H9_ipkAbO5sh-105" value="" style="endArrow=none;html=1;fontSize=30;exitX=0;exitY=0.5;exitDx=0;exitDy=0;entryX=1;entryY=0.5;entryDx=0;entryDy=0;" edge="1" parent="1" source="E94k6uw-H9_ipkAbO5sh-99" target="E94k6uw-H9_ipkAbO5sh-99">
          <mxGeometry width="50" height="50" relative="1" as="geometry">
            <mxPoint x="700" y="398" as="sourcePoint"/>
            <mxPoint x="750" y="348" as="targetPoint"/>
          </mxGeometry>
        </mxCell>
        <mxCell id="E94k6uw-H9_ipkAbO5sh-106" value="" style="endArrow=none;html=1;fontSize=30;exitX=0.5;exitY=0;exitDx=0;exitDy=0;entryX=0.5;entryY=1;entryDx=0;entryDy=0;" edge="1" parent="1" source="E94k6uw-H9_ipkAbO5sh-99" target="E94k6uw-H9_ipkAbO5sh-99">
          <mxGeometry width="50" height="50" relative="1" as="geometry">
            <mxPoint x="700" y="378" as="sourcePoint"/>
            <mxPoint x="750" y="328" as="targetPoint"/>
          </mxGeometry>
        </mxCell>
        <mxCell id="E94k6uw-H9_ipkAbO5sh-107" value="4" style="text;html=1;strokeColor=none;fillColor=none;align=center;verticalAlign=middle;whiteSpace=wrap;rounded=0;fontSize=30;" vertex="1" parent="1">
          <mxGeometry x="669" y="455" width="40" height="20" as="geometry"/>
        </mxCell>
        <mxCell id="E94k6uw-H9_ipkAbO5sh-108" value="3" style="text;html=1;strokeColor=none;fillColor=none;align=center;verticalAlign=middle;whiteSpace=wrap;rounded=0;fontSize=30;" vertex="1" parent="1">
          <mxGeometry x="727" y="455" width="40" height="20" as="geometry"/>
        </mxCell>
        <mxCell id="E94k6uw-H9_ipkAbO5sh-109" value="2" style="text;html=1;strokeColor=none;fillColor=none;align=center;verticalAlign=middle;whiteSpace=wrap;rounded=0;fontSize=30;" vertex="1" parent="1">
          <mxGeometry x="669" y="513" width="40" height="20" as="geometry"/>
        </mxCell>
        <mxCell id="E94k6uw-H9_ipkAbO5sh-110" value="4" style="text;html=1;strokeColor=none;fillColor=none;align=center;verticalAlign=middle;whiteSpace=wrap;rounded=0;fontSize=30;" vertex="1" parent="1">
          <mxGeometry x="727" y="513" width="40" height="20" as="geometry"/>
        </mxCell>
        <mxCell id="E94k6uw-H9_ipkAbO5sh-111" value="" style="whiteSpace=wrap;html=1;aspect=fixed;fontSize=30;fillColor=none;strokeColor=#9933FF;rounded=0;shadow=0;glass=0;comic=0;strokeWidth=2;" vertex="1" parent="1">
          <mxGeometry x="40" y="390" width="173" height="173" as="geometry"/>
        </mxCell>
        <mxCell id="E94k6uw-H9_ipkAbO5sh-112" value="" style="whiteSpace=wrap;html=1;aspect=fixed;strokeColor=#9933FF;fillColor=none;fontSize=30;strokeWidth=2;" vertex="1" parent="1">
          <mxGeometry x="660" y="436" width="58" height="58" as="geometry"/>
        </mxCell>
      </root>
    </mxGraphModel>
  </diagram>
</mxfile>
